<?xml version="1.0" standalone="no"?>
<!DOCTYPE svg PUBLIC "-//W3C//DTD SVG 20010904//EN"
 "http://www.w3.org/TR/2001/REC-SVG-20010904/DTD/svg10.dtd">
<svg version="1.0" xmlns="http://www.w3.org/2000/svg"
 width="474.000000pt" height="527.000000pt" viewBox="0 0 474.000000 527.000000"
 preserveAspectRatio="xMidYMid meet">

<g transform="translate(0.000000,527.000000) scale(0.100000,-0.100000)"
fill="#000000" stroke="none">
<path d="M935 3890 c-161 -31 -279 -70 -340 -115 -16 -12 -39 -25 -50 -29 -15
-5 -16 -9 -6 -15 10 -6 9 -10 -4 -14 -9 -4 -13 -3 -10 3 3 6 1 10 -6 10 -23 0
-145 -136 -178 -200 -30 -57 -34 -75 -35 -145 -1 -58 4 -90 17 -117 18 -39 32
-48 40 -25 2 6 3 3 1 -7 -4 -24 57 -94 76 -88 7 3 10 0 6 -6 -3 -5 1 -13 10
-16 8 -3 12 -2 9 3 -3 5 -1 12 4 15 5 4 11 -4 13 -16 3 -20 9 -23 43 -22 22 0
30 -1 18 -3 -27 -5 -28 -11 -7 -34 14 -16 14 -18 -3 -23 -10 -3 -71 -4 -136
-3 -64 2 -117 2 -117 1 0 -5 87 -44 98 -44 7 0 12 -4 12 -8 0 -16 84 -46 129
-46 l44 -1 -2 -257 c-2 -175 1 -258 8 -258 7 0 12 80 14 238 l2 237 3 -237 c2
-202 0 -239 -13 -252 -14 -14 -12 -18 24 -41 42 -26 56 -30 64 -17 2 4 2 2 1
-5 -2 -7 1 -15 6 -18 6 -4 11 113 12 302 l3 308 60 1 c33 1 65 0 71 -3 6 -2
11 -22 10 -43 0 -28 6 -46 23 -64 14 -14 29 -26 35 -26 6 0 22 -9 36 -20 28
-22 48 -27 32 -7 -22 26 41 137 77 137 6 0 8 6 5 14 -4 10 6 12 48 8 59 -5 78
-16 78 -43 0 -10 5 -21 10 -24 6 -3 10 -18 9 -33 0 -23 -1 -24 -8 -7 -8 19 -8
19 -19 -2 -19 -34 -80 -64 -134 -65 -29 -1 -45 -5 -39 -11 30 -30 -52 -86
-106 -72 -15 3 -45 9 -65 12 -33 4 -39 2 -49 -21 -10 -22 -9 -29 6 -46 10 -11
21 -17 25 -15 4 3 14 -2 21 -11 12 -14 14 -14 27 3 14 17 14 17 9 -4 -3 -15 0
-23 12 -26 22 -5 84 13 93 27 5 7 8 5 8 -6 0 -16 53 -43 78 -39 6 1 12 -4 12
-11 0 -7 10 -19 23 -25 63 -33 110 -53 115 -48 3 3 3 6 1 8 -16 13 -165 99
-169 98 -3 -1 -6 10 -8 23 -3 21 2 26 32 31 19 4 43 14 53 23 11 10 28 22 39
28 10 6 38 35 62 65 23 30 48 60 54 68 6 7 11 40 11 72 l-1 59 99 0 c77 0 101
-3 105 -14 3 -8 6 -123 7 -255 1 -133 6 -241 11 -240 5 0 12 -3 15 -8 6 -9 78
-53 86 -53 3 0 6 127 7 283 l3 282 263 1 263 2 11 -24 c6 -13 16 -24 22 -24 6
0 3 -5 -6 -11 -24 -13 -23 -24 4 -36 22 -10 21 -10 -10 -15 -22 -3 -42 2 -65
16 -68 45 -133 56 -197 33 -54 -18 -117 -59 -102 -65 9 -3 6 -8 -9 -16 -13 -6
-30 -28 -38 -49 -12 -31 -12 -42 -1 -65 8 -15 13 -30 12 -34 -1 -4 14 -16 33
-28 19 -12 35 -26 35 -31 0 -5 6 -9 14 -9 8 0 30 -9 48 -19 55 -33 117 -44
168 -31 25 6 56 14 69 17 31 8 41 -10 41 -74 l0 -53 48 -22 c26 -13 50 -24 55
-26 4 -2 7 122 7 276 0 246 2 281 16 286 31 12 202 7 211 -6 4 -7 6 -121 5
-254 l-4 -241 31 -6 c18 -4 30 -12 29 -19 -2 -8 6 -13 19 -12 12 0 20 -3 18
-7 -3 -4 2 -9 10 -13 13 -4 15 32 15 272 2 345 1 331 7 310 2 -10 13 -18 23
-18 10 0 25 -3 34 -6 13 -5 16 3 16 47 l0 54 -434 -3 c-375 -2 -439 -1 -468
13 -18 8 -25 13 -15 10 9 -2 17 0 17 5 0 5 14 17 30 27 17 9 30 21 30 26 0 5
-6 5 -12 -1 -9 -7 -17 -6 -25 4 -11 11 -7 12 22 9 24 -3 35 -1 35 8 0 6 14 19
31 27 45 22 89 110 89 176 0 122 -33 210 -109 292 -72 77 -255 192 -306 192
-14 0 -25 4 -25 9 0 11 -92 36 -205 55 -95 17 -320 22 -297 7 11 -6 9 -9 -6
-13 -15 -4 -19 -2 -15 8 3 8 4 13 2 13 -2 -1 -44 -9 -94 -19z m238 3 c-13 -2
-33 -2 -45 0 -13 2 -3 4 22 4 25 0 35 -2 23 -4z m164 -19 c-3 -3 -12 -4 -19
-1 -8 3 -5 6 6 6 11 1 17 -2 13 -5z m141 -49 c31 -4 68 -8 82 -8 14 -1 29 -8
33 -14 4 -7 14 -13 21 -13 20 0 122 -59 147 -84 13 -13 29 -22 36 -19 7 3 14
0 14 -6 1 -6 2 -17 3 -23 0 -7 8 -14 16 -14 32 -3 35 -5 22 -13 -11 -6 -9 -20
8 -72 18 -53 21 -77 16 -144 -4 -44 -7 -93 -8 -110 0 -16 -3 -25 -5 -18 -2 6
-28 -12 -58 -41 -82 -82 -231 -145 -341 -146 -23 0 -64 7 -92 16 -48 16 -50
18 -67 74 -10 33 -15 69 -11 84 4 15 2 26 -4 26 -5 0 -10 5 -10 11 0 5 4 8 9
4 5 -3 18 6 29 20 24 30 88 55 146 56 34 1 37 2 16 8 l-25 7 27 6 c16 3 29 0
31 -6 2 -6 8 -8 12 -4 15 14 -87 68 -128 68 -52 0 -126 -20 -148 -39 -9 -9
-29 -27 -43 -40 -46 -41 -32 -137 28 -199 20 -20 36 -39 36 -43 0 -3 19 -14
43 -25 46 -20 68 -42 64 -63 -1 -10 -28 -14 -107 -17 -123 -4 -137 -1 -137 29
-1 47 -1 47 -73 47 -69 0 -70 0 -71 -27 -1 -16 -1 -31 0 -35 0 -4 -10 -10 -22
-13 -31 -8 -215 0 -224 9 -5 4 3 17 17 28 14 11 24 25 22 30 -1 5 2 7 7 4 10
-7 61 31 61 45 0 5 -7 9 -15 9 -8 0 -15 5 -15 11 0 7 10 9 25 5 37 -9 31 9 -9
28 -70 33 -91 32 -134 -9 -48 -44 -95 -70 -143 -79 -30 -5 -39 -2 -59 19 -12
13 -27 22 -33 18 -6 -4 -7 -1 -3 6 5 7 1 20 -7 29 -8 9 -20 33 -25 52 -5 19
-14 34 -21 33 -6 -2 -11 2 -11 7 0 6 4 10 9 10 4 0 11 26 13 58 8 82 58 176
124 232 29 25 51 51 49 57 -3 7 -1 12 3 12 28 -4 44 3 38 17 -4 10 -2 14 6 11
7 -2 21 0 31 5 15 8 16 12 6 25 -11 13 -10 15 11 13 41 -4 52 -1 44 12 -4 6
-3 8 3 5 10 -6 65 9 118 32 54 23 78 31 95 31 11 0 20 3 20 8 0 4 26 8 58 9
31 1 92 7 136 14 47 7 112 9 162 5 64 -5 84 -3 85 6 1 7 3 6 6 -3 3 -11 21
-18 61 -24z m-415 18 c-7 -2 -21 -2 -30 0 -10 3 -4 5 12 5 17 0 24 -2 18 -5z
m-413 -138 c11 -13 10 -14 -4 -9 -9 3 -16 10 -16 15 0 13 6 11 20 -6z m-92
-30 c-3 -3 -9 2 -12 12 -6 14 -5 15 5 6 7 -7 10 -15 7 -18z m-103 -35 c-3 -5
-11 -10 -16 -10 -6 0 -7 5 -4 10 3 6 11 10 16 10 6 0 7 -4 4 -10z m1430 -29
c3 -5 1 -12 -4 -15 -5 -3 -11 1 -15 9 -6 16 9 21 19 6z m-1375 -25 c0 -3 -4
-8 -10 -11 -5 -3 -10 -1 -10 4 0 6 5 11 10 11 6 0 10 -2 10 -4z m-130 -30 c0
-3 -4 -8 -10 -11 -5 -3 -10 -1 -10 4 0 6 5 11 10 11 6 0 10 -2 10 -4z m60 -67
c-7 -11 -14 -18 -17 -15 -3 3 0 12 7 21 18 21 23 19 10 -6z m1470 -29 c0 -5
-5 -10 -11 -10 -5 0 -7 5 -4 10 3 6 8 10 11 10 2 0 4 -4 4 -10z m-487 -7 c-7
-2 -21 -2 -30 0 -10 3 -4 5 12 5 17 0 24 -2 18 -5z m37 -13 c0 -5 -4 -10 -10
-10 -5 0 -10 5 -10 10 0 6 5 10 10 10 6 0 10 -4 10 -10z m-1143 -87 c-3 -10
-5 -2 -5 17 0 19 2 27 5 18 2 -10 2 -26 0 -35z m1580 15 c-3 -8 -6 -5 -6 6 -1
11 2 17 5 13 3 -3 4 -12 1 -19z m63 -98 c0 -5 -2 -10 -4 -10 -3 0 -8 5 -11 10
-3 6 -1 10 4 10 6 0 11 -4 11 -10z m-693 -42 c-3 -8 -6 -5 -6 6 -1 11 2 17 5
13 3 -3 4 -12 1 -19z m668 2 c0 -7 -6 -15 -12 -17 -8 -3 -13 4 -13 17 0 13 5
20 13 18 6 -3 12 -11 12 -18z m-1515 0 c0 -5 -5 -10 -11 -10 -5 0 -7 5 -4 10
3 6 8 10 11 10 2 0 4 -4 4 -10z m1480 -34 c0 -2 -9 -6 -20 -9 -11 -3 -20 -1
-20 4 0 5 9 9 20 9 11 0 20 -2 20 -4z m-107 -13 c-7 -2 -19 -2 -25 0 -7 3 -2
5 12 5 14 0 19 -2 13 -5z m-1086 -39 c-3 -3 -12 -4 -19 -1 -8 3 -5 6 6 6 11 1
17 -2 13 -5z m50 -10 c-3 -3 -12 -4 -19 -1 -8 3 -5 6 6 6 11 1 17 -2 13 -5z
m903 -24 c0 -5 -10 -10 -22 -9 -22 0 -22 1 -3 9 11 5 21 9 23 9 1 1 2 -3 2 -9z
m-890 -4 c0 -2 -9 -6 -20 -9 -11 -3 -20 -1 -20 4 0 5 9 9 20 9 11 0 20 -2 20
-4z m346 -21 c1 -17 0 -17 -3 -2 -4 16 -12 18 -49 15 -24 -2 -44 1 -44 5 0 4
21 7 48 5 39 -2 47 -6 48 -23z m441 -1 c-3 -3 -12 -4 -19 -1 -8 3 -5 6 6 6 11
1 17 -2 13 -5z m-980 -10 c-3 -3 -12 -4 -19 -1 -8 3 -5 6 6 6 11 1 17 -2 13
-5z m-200 -50 c-3 -3 -12 -4 -19 -1 -8 3 -5 6 6 6 11 1 17 -2 13 -5z m476 -1
c-13 -2 -33 -2 -45 0 -13 2 -3 4 22 4 25 0 35 -2 23 -4z m470 0 c-13 -2 -33
-2 -45 0 -13 2 -3 4 22 4 25 0 35 -2 23 -4z m570 0 c-7 -2 -19 -2 -25 0 -7 3
-2 5 12 5 14 0 19 -2 13 -5z m190 0 c-29 -2 -78 -2 -110 0 -32 2 -8 3 52 3 61
0 87 -1 58 -3z m495 0 c-10 -2 -26 -2 -35 0 -10 3 -2 5 17 5 19 0 27 -2 18 -5z
m-1588 -73 c0 -5 -2 -10 -4 -10 -3 0 -8 5 -11 10 -3 6 -1 10 4 10 6 0 11 -4
11 -10z m-370 -94 c0 -52 -6 -43 -13 18 -3 30 -1 43 4 35 5 -8 9 -32 9 -53z
m240 54 c0 -5 -4 -10 -10 -10 -5 0 -10 5 -10 10 0 6 5 10 10 10 6 0 10 -4 10
-10z m1390 0 c0 -5 -4 -10 -10 -10 -5 0 -10 5 -10 10 0 6 5 10 10 10 6 0 10
-4 10 -10z m-1593 -72 c-2 -13 -4 -3 -4 22 0 25 2 35 4 23 2 -13 2 -33 0 -45z
m207 27 c3 -8 1 -15 -3 -15 -5 0 -11 7 -15 15 -3 8 -1 15 3 15 5 0 11 -7 15
-15z m1143 -1 c-3 -3 -12 -4 -19 -1 -8 3 -5 6 6 6 11 1 17 -2 13 -5z m-114
-11 c-7 -2 -19 -2 -25 0 -7 3 -2 5 12 5 14 0 19 -2 13 -5z m-395 -218 c-2
-197 -6 -173 -10 57 -2 80 0 141 4 135 4 -7 7 -93 6 -192z m631 145 c0 -22
-20 -55 -60 -97 -41 -43 -125 -76 -177 -70 -37 5 -39 6 -42 27 -6 44 3 66 48
109 58 56 107 81 145 74 17 -3 27 -1 27 7 0 6 13 1 29 -12 17 -13 30 -30 30
-38z m-989 -14 c0 -8 8 -17 18 -19 11 -3 9 -5 -8 -6 -19 -1 -26 4 -27 19 -1
11 2 20 8 20 5 0 9 -6 9 -14z m-30 -6 c0 -5 -7 -10 -15 -10 -8 0 -15 5 -15 10
0 6 7 10 15 10 8 0 15 -4 15 -10z m631 -23 c-10 -9 -11 -8 -5 6 3 10 9 15 12
12 3 -3 0 -11 -7 -18z m-1124 -229 c-1 -46 -3 -11 -3 77 0 88 2 125 3 83 2
-42 2 -114 0 -160z m193 172 c0 -5 -4 -10 -10 -10 -5 0 -10 5 -10 10 0 6 5 10
10 10 6 0 10 -4 10 -10z m1017 -22 c-3 -8 -6 -5 -6 6 -1 11 2 17 5 13 3 -3 4
-12 1 -19z m273 12 c0 -5 -5 -10 -11 -10 -5 0 -7 5 -4 10 3 6 8 10 11 10 2 0
4 -4 4 -10z m-1207 -7 c-7 -2 -19 -2 -25 0 -7 3 -2 5 12 5 14 0 19 -2 13 -5z
m1110 -60 c-7 -2 -19 -2 -25 0 -7 3 -2 5 12 5 14 0 19 -2 13 -5z m-103 -13 c0
-5 -7 -7 -15 -4 -8 4 -15 8 -15 10 0 2 7 4 15 4 8 0 15 -4 15 -10z m-1243 -62
c-2 -13 -4 -3 -4 22 0 25 2 35 4 23 2 -13 2 -33 0 -45z m1590 0 c-2 -13 -4 -3
-4 22 0 25 2 35 4 23 2 -13 2 -33 0 -45z m-238 26 c2 -2 1 -7 -2 -11 -4 -3
-22 1 -40 10 l-32 17 35 -6 c19 -4 37 -8 39 -10z m521 -84 c0 -5 -4 -10 -10
-10 -5 0 -10 5 -10 10 0 6 5 10 10 10 6 0 10 -4 10 -10z m-967 -47 c-7 -2 -19
-2 -25 0 -7 3 -2 5 12 5 14 0 19 -2 13 -5z m-943 -28 c7 -8 8 -15 2 -15 -5 0
-15 7 -22 15 -7 8 -8 15 -2 15 5 0 15 -7 22 -15z"/>
<path d="M2087 3854 l-48 -15 31 -25 c17 -15 37 -24 46 -20 11 4 14 1 12 -12
-1 -9 7 -33 20 -53 12 -20 22 -41 22 -46 0 -6 7 -16 15 -23 11 -9 15 -9 15 -1
0 7 4 9 10 6 5 -3 25 -3 45 1 30 5 35 10 35 35 0 15 -4 31 -10 34 -20 12 -10
45 16 51 49 12 164 -77 164 -129 1 -57 40 -66 163 -40 l77 17 0 33 c0 23 -4
32 -12 27 -7 -4 -8 -3 -4 4 10 17 -41 69 -102 104 -65 37 -159 48 -225 27 -23
-7 -44 -16 -47 -20 -3 -3 -17 -9 -32 -12 -21 -6 -31 -1 -50 21 -21 24 -68 53
-86 51 -4 0 -29 -7 -55 -15z m450 -54 c3 -10 2 -11 -4 -4 -4 7 -17 14 -28 17
-16 5 -15 5 4 4 14 -1 26 -9 28 -17z m-363 -45 c3 -8 1 -15 -4 -15 -6 0 -10 7
-10 15 0 8 2 15 4 15 2 0 6 -7 10 -15z m256 5 c0 -5 -4 -10 -10 -10 -5 0 -10
5 -10 10 0 6 5 10 10 10 6 0 10 -4 10 -10z m204 -38 c-6 -4 -14 -14 -17 -22
-4 -10 -6 -8 -6 7 -1 12 5 23 12 26 16 6 24 -2 11 -11z m-117 -69 c-3 -10 -5
-4 -5 12 0 17 2 24 5 18 2 -7 2 -21 0 -30z m146 -10 c-7 -2 -19 -2 -25 0 -7 3
-2 5 12 5 14 0 19 -2 13 -5z"/>
<path d="M1856 3841 c-3 -4 -19 -11 -36 -14 -16 -4 -30 -11 -30 -16 0 -6 7 -7
17 -4 11 4 14 3 9 -5 -4 -7 -3 -12 3 -12 5 0 41 -30 79 -67 51 -50 77 -85 97
-131 16 -34 35 -67 43 -71 10 -5 33 -4 59 4 24 7 47 13 51 12 13 -1 13 31 -1
44 -7 8 -14 21 -14 29 0 16 -36 76 -72 120 -17 21 -22 23 -30 10 -6 -8 -13
-11 -18 -7 -4 5 -1 12 7 17 12 7 10 14 -14 39 -47 49 -134 79 -150 52z m59
-101 c10 -11 13 -20 7 -20 -6 0 -16 9 -22 20 -6 11 -9 20 -7 20 2 0 12 -9 22
-20z m150 -40 c3 -5 1 -10 -4 -10 -6 0 -11 5 -11 10 0 6 2 10 4 10 3 0 8 -4
11 -10z m-98 -6 c-3 -3 -12 -4 -19 -1 -8 3 -5 6 6 6 11 1 17 -2 13 -5z m83
-86 c0 -19 -2 -20 -10 -8 -13 19 -13 30 0 30 6 0 10 -10 10 -22z"/>
<path d="M2924 3231 c6 -8 0 -10 -17 -5 -19 4 -30 0 -44 -15 -9 -12 -22 -21
-28 -21 -6 0 -21 -14 -34 -31 -17 -22 -21 -38 -16 -60 4 -16 11 -27 16 -23 6
3 7 -4 4 -18 -4 -17 3 -32 31 -60 20 -21 40 -38 44 -38 6 0 30 -44 30 -55 0
-2 -8 -1 -19 2 -10 2 -25 -3 -34 -11 -8 -9 -19 -16 -23 -16 -13 0 -134 -64
-134 -71 0 -4 18 -23 39 -42 22 -19 36 -39 33 -42 -13 -14 43 8 93 35 28 15
52 28 55 28 35 3 106 52 90 62 -9 5 -8 9 2 13 19 7 118 -60 118 -79 0 -8 -8
-17 -17 -20 -58 -20 -201 -94 -206 -108 -4 -9 -12 -16 -19 -16 -7 0 -26 -12
-43 -26 -29 -26 -29 -26 -5 -20 14 3 19 3 13 0 -7 -3 -13 -17 -13 -30 0 -13
-5 -24 -11 -24 -6 0 -8 9 -4 20 8 27 -11 26 -26 -1 -22 -41 -29 -83 -17 -90 9
-6 9 -11 0 -22 -9 -10 -10 -33 -6 -71 7 -59 38 -109 93 -151 24 -18 24 -18 16
1 -5 10 -11 50 -13 88 -5 83 14 139 70 210 30 38 36 51 26 58 -8 5 -3 6 14 2
20 -4 29 -2 34 10 3 9 12 16 20 16 8 0 14 5 14 10 0 6 7 10 17 10 9 0 39 11
67 24 96 45 121 54 159 61 20 4 37 11 37 16 0 5 8 2 18 -7 17 -14 19 -29 16
-115 -2 -70 0 -99 9 -99 8 0 8 -3 -1 -12 -30 -30 1 -67 58 -68 25 -1 30 -3 17
-9 -17 -6 -16 -8 7 -19 l26 -11 2 277 3 277 164 3 c166 3 199 -4 187 -35 -3
-7 -1 -13 4 -13 6 0 10 5 10 11 0 5 5 7 12 3 8 -5 5 -11 -10 -17 -12 -6 -22
-21 -24 -36 -2 -21 -15 -32 -64 -56 -84 -41 -96 -52 -83 -77 8 -14 8 -23 0
-31 -8 -8 -11 -4 -11 16 0 37 -14 34 -28 -8 -14 -36 -4 -67 36 -117 80 -99
160 -122 226 -65 28 24 33 48 35 154 l1 61 93 -1 92 -2 5 -125 c6 -135 38
-260 66 -260 8 0 14 -8 14 -19 0 -24 26 -48 33 -29 2 7 3 3 1 -8 -2 -13 3 -24
12 -28 8 -3 13 -2 10 2 -2 4 -1 14 3 21 6 9 10 5 13 -13 3 -14 1 -26 -5 -26
-18 0 97 -76 142 -94 58 -22 117 -23 140 -2 13 12 20 13 23 6 5 -17 75 50 88
84 11 31 4 109 -11 114 -5 2 -9 9 -9 16 0 22 -83 86 -111 86 -6 0 2 -15 18
-34 17 -21 34 -33 45 -30 9 3 20 -1 24 -7 5 -9 2 -10 -9 -6 -11 4 -17 1 -17
-8 0 -8 8 -15 18 -16 10 0 12 -3 5 -6 -7 -2 -13 -11 -13 -19 0 -8 -7 -29 -16
-46 -12 -23 -13 -32 -4 -38 9 -5 9 -9 1 -14 -6 -4 -11 -2 -11 4 0 7 -13 4 -34
-8 -74 -44 -185 -36 -226 15 -12 15 -28 54 -37 86 -9 33 -23 61 -30 64 -14 6
-18 29 -5 35 4 2 5 39 2 83 -3 44 -4 162 -2 263 l3 183 77 -5 c70 -5 75 -4 57
10 -11 8 -25 12 -33 9 -7 -3 -10 0 -7 6 4 6 13 8 21 5 8 -3 14 -2 14 3 0 11
-26 32 -32 26 -2 -3 -4 5 -4 18 1 21 -2 22 -116 25 -76 2 -118 -1 -118 -8 0
-5 -18 -10 -40 -10 -22 0 -40 5 -40 10 0 15 -97 12 -104 -2 -5 -10 -7 -10 -12
0 -7 15 -464 18 -464 2 0 -5 -11 -10 -25 -10 -14 0 -25 5 -25 10 0 6 -13 10
-30 10 -16 0 -30 -4 -30 -9 0 -5 -7 -12 -16 -15 -12 -5 -15 -2 -10 10 5 12 2
15 -10 10 -8 -3 -22 -6 -31 -6 -18 0 -14 -42 6 -48 8 -3 11 0 7 6 -3 6 -1 14
5 18 9 5 10 -1 5 -20 -6 -25 8 -38 16 -14 3 7 7 5 11 -6 4 -10 3 -15 -3 -11
-6 3 -10 2 -10 -4 0 -5 10 -11 23 -13 16 -2 23 -11 25 -30 3 -27 15 -37 25
-20 2 4 2 1 0 -6 -1 -8 -3 -22 -3 -33 0 -12 -5 -16 -15 -13 -13 6 -20 -6 -16
-28 0 -4 -12 -5 -27 -2 -19 4 -34 0 -44 -10 -10 -10 -37 -16 -70 -18 -42 -1
-61 3 -90 23 -21 13 -40 30 -43 38 -3 7 11 29 30 49 19 20 38 44 41 54 3 10 9
18 14 18 4 0 11 15 14 33 7 36 -8 90 -33 119 -16 19 -37 25 -26 8 3 -5 2 -10
-3 -10 -12 0 -52 47 -45 54 3 3 12 -2 19 -12 8 -10 13 -12 14 -5 0 22 -82 66
-134 71 -36 4 -47 2 -42 -7z m134 -81 c21 0 13 -57 -13 -96 -14 -20 -25 -45
-25 -55 0 -11 -7 -19 -15 -19 -8 0 -15 -4 -15 -10 0 -5 -15 -10 -34 -10 -76 0
-67 110 14 161 21 13 35 28 32 33 -3 5 5 6 19 3 13 -4 30 -7 37 -7z m-240 -14
c-7 -8 -15 -12 -17 -11 -5 6 10 25 20 25 5 0 4 -6 -3 -14z m327 -40 c12 -12
12 -16 -2 -28 -15 -11 -16 -11 -10 5 3 9 2 17 -3 17 -6 0 -10 5 -10 10 0 14 9
12 25 -4z m-288 -78 c-3 -8 -6 -5 -6 6 -1 11 2 17 5 13 3 -3 4 -12 1 -19z
m1160 -44 c-3 -3 -12 -4 -19 -1 -8 3 -5 6 6 6 11 1 17 -2 13 -5z m130 -26 c-3
-7 -5 -2 -5 12 0 14 2 19 5 13 2 -7 2 -19 0 -25z m30 0 c-3 -7 -5 -2 -5 12 0
14 2 19 5 13 2 -7 2 -19 0 -25z m-51 -13 c3 -12 4 -37 2 -56 l-3 -34 -88 0
c-81 0 -105 -6 -74 -18 6 -3 1 -6 -12 -6 -23 -1 -24 1 -18 56 4 35 12 62 21
69 9 6 50 11 91 11 69 0 76 -2 81 -22z m-1156 -15 c0 -5 -5 -10 -11 -10 -5 0
-7 5 -4 10 3 6 8 10 11 10 2 0 4 -4 4 -10z m427 -72 c-3 -8 -6 -5 -6 6 -1 11
2 17 5 13 3 -3 4 -12 1 -19z m706 -25 c-7 -2 -19 -2 -25 0 -7 3 -2 5 12 5 14
0 19 -2 13 -5z m-1227 -38 c-8 -8 -20 -15 -27 -15 -7 0 -4 6 7 15 25 19 40 19
20 0z m314 -25 c-20 -13 -33 -13 -25 0 3 6 14 10 23 10 15 0 15 -2 2 -10z m97
-26 c-3 -3 -12 -4 -19 -1 -8 3 -5 6 6 6 11 1 17 -2 13 -5z m573 -62 c0 -45 -5
-63 -20 -80 -41 -43 -100 -16 -100 45 0 47 47 92 98 93 20 0 22 -4 22 -58z
m-792 27 c-7 -5 -19 -9 -27 -9 -11 0 -11 3 -1 14 6 8 18 12 27 9 12 -5 12 -7
1 -14z m1127 -29 c3 -5 1 -10 -4 -10 -6 0 -11 5 -11 10 0 6 2 10 4 10 3 0 8
-4 11 -10z m-527 -25 c-3 -3 -9 2 -12 12 -6 14 -5 15 5 6 7 -7 10 -15 7 -18z
m52 15 c0 -5 -4 -10 -10 -10 -5 0 -10 5 -10 10 0 6 5 10 10 10 6 0 10 -4 10
-10z m-823 -46 c-3 -3 -12 -4 -19 -1 -8 3 -5 6 6 6 11 1 17 -2 13 -5z m1016
-44 c-3 -11 -10 -23 -16 -27 -7 -4 -8 0 -4 11 4 10 7 22 7 27 0 5 4 9 9 9 5 0
7 -9 4 -20z m-158 -10 c3 -5 1 -10 -4 -10 -6 0 -11 5 -11 10 0 6 2 10 4 10 3
0 8 -4 11 -10z m59 -9 c3 -5 -3 -11 -14 -14 -20 -5 -26 3 -13 16 9 10 21 9 27
-2z m393 -23 c-3 -7 -5 -2 -5 12 0 14 2 19 5 13 2 -7 2 -19 0 -25z m-22 -48
c3 -5 2 -10 -4 -10 -5 0 -13 5 -16 10 -3 6 -2 10 4 10 5 0 13 -4 16 -10z
m-1360 -40 c3 -5 1 -10 -4 -10 -6 0 -11 5 -11 10 0 6 2 10 4 10 3 0 8 -4 11
-10z m1833 -147 c-1 -36 -2 -40 -5 -16 -3 24 -8 30 -20 26 -11 -4 -14 -2 -11
8 3 8 11 13 17 12 6 -2 11 2 11 7 0 6 2 10 5 10 3 0 4 -21 3 -47z m-1830 25
c9 -9 12 -9 13 3 0 9 4 6 9 -6 12 -28 12 -55 -1 -55 -5 0 -7 5 -3 12 4 6 -5
21 -22 35 -16 12 -24 23 -18 23 5 0 15 -5 22 -12z m1812 -92 c0 -3 -4 -8 -10
-11 -5 -3 -10 -1 -10 4 0 6 5 11 10 11 6 0 10 -2 10 -4z m-210 -40 c0 -11 -19
-15 -25 -6 -3 5 1 10 9 10 9 0 16 -2 16 -4z m97 -22 c-3 -3 -12 -4 -19 -1 -8
3 -5 6 6 6 11 1 17 -2 13 -5z"/>
<path d="M1197 2464 c-10 -10 35 -45 50 -40 7 3 12 2 12 -2 -4 -24 4 -32 31
-32 23 0 30 -5 30 -19 0 -10 10 -25 23 -34 40 -26 106 -97 128 -137 13 -22 26
-40 30 -40 5 0 13 -27 20 -60 6 -33 15 -57 19 -55 10 6 20 -20 19 -48 -1 -17
-3 -15 -9 8 -6 23 -8 12 -9 -45 -3 -93 -20 -175 -46 -215 -60 -94 -162 -157
-276 -172 -71 -9 -66 -9 -132 0 -40 6 -46 5 -35 -6 22 -23 140 -65 201 -72 65
-8 145 9 154 32 4 11 8 11 13 3 5 -9 16 -7 41 6 19 10 37 18 41 19 10 0 88
106 100 135 5 14 16 38 24 54 8 16 14 40 14 52 0 13 5 44 12 68 30 112 -67
316 -208 437 -66 58 -179 139 -193 139 -5 0 -14 7 -21 15 -13 16 -23 19 -33 9z
m193 -134 c6 -11 9 -20 7 -20 -2 0 -12 9 -22 20 -10 11 -13 20 -7 20 6 0 16
-9 22 -20z m140 -150 c6 -11 8 -20 6 -20 -3 0 -10 9 -16 20 -6 11 -8 20 -6 20
3 0 10 -9 16 -20z m24 -67 c-2 -38 -4 -41 -13 -18 -9 21 -4 45 8 45 4 0 6 -12
5 -27z m56 -73 c0 -5 -5 -10 -11 -10 -5 0 -7 5 -4 10 3 6 8 10 11 10 2 0 4 -4
4 -10z m17 -62 c-3 -8 -6 -5 -6 6 -1 11 2 17 5 13 3 -3 4 -12 1 -19z m-48 -30
c0 -27 -2 -29 -8 -13 -5 11 -6 26 -4 33 8 21 13 13 12 -20z m-32 -140 c-3 -8
-6 -5 -6 6 -1 11 2 17 5 13 3 -3 4 -12 1 -19z m40 -20 c-3 -8 -6 -5 -6 6 -1
11 2 17 5 13 3 -3 4 -12 1 -19z m1 -83 c-3 -3 -9 2 -12 12 -6 14 -5 15 5 6 7
-7 10 -15 7 -18z m-118 -35 c0 -5 -5 -10 -11 -10 -5 0 -7 5 -4 10 3 6 8 10 11
10 2 0 4 -4 4 -10z m-101 -73 c-2 -1 -12 -9 -22 -16 -15 -12 -17 -12 -11 3 3
9 13 16 22 16 8 0 13 -1 11 -3z m-62 -33 c-3 -3 -12 -4 -19 -1 -8 3 -5 6 6 6
11 1 17 -2 13 -5z m-192 -14 c3 -6 -1 -7 -9 -4 -18 7 -21 14 -7 14 6 0 13 -4
16 -10z m60 -10 c3 -5 1 -10 -4 -10 -6 0 -11 5 -11 10 0 6 2 10 4 10 3 0 8 -4
11 -10z m143 -27 c-15 -2 -42 -2 -60 0 -18 2 -6 4 27 4 33 0 48 -2 33 -4z"/>
</g>
</svg>
